<?xml version="1.0" encoding="UTF-8"?>
<svg width="256px" height="256px" viewBox="0 0 256 256" version="1.1" xmlns="http://www.w3.org/2000/svg" xmlns:xlink="http://www.w3.org/1999/xlink">
    <g id="simplicite" stroke="none" stroke-width="1" fill="none" fill-rule="evenodd">
        <rect id="Rectangle" fill="#FFFFFF" x="18" y="19" width="222" height="220.976959" rx="19"></rect>
        <g id="SimpliciteÌ_Signe_Black-(4)" transform="translate(50.000000, 46.000000)" fill="#010101" fill-rule="nonzero">
            <polygon id="Path" points="108.001868 0 50.5625572 0 50.5625572 9.33955891 108.001868 9.33955891"></polygon>
            <polygon id="Path" points="108.001868 157.319378 50.5625572 157.319378 50.5625572 166.658937 108.001868 166.658937"></polygon>
            <polygon id="Path" points="138.981369 22.3903815 19.5830561 22.3903815 19.5830561 31.7299405 138.981369 31.7299405"></polygon>
            <polygon id="Path" points="138.981369 134.860775 19.5830561 134.860775 19.5830561 144.200334 138.981369 144.200334"></polygon>
            <polygon id="Path" points="153.43756 44.8830957 5.12345416 44.8830957 5.12345416 54.2226546 153.43756 54.2226546"></polygon>
            <polygon id="Path" points="153.43756 112.36806 5.12345416 112.36806 5.12345416 121.707619 153.43756 121.707619"></polygon>
            <polygon id="Path" points="158.561014 67.379221 0 67.379221 0 76.7187799 158.561014 76.7187799"></polygon>
            <polygon id="Path" points="158.561014 89.8719352 0 89.8719352 0 99.2114941 158.561014 99.2114941"></polygon>
        </g>
    </g>
</svg>