<svg height="256" viewBox="0 0 256 256" width="256" xmlns="http://www.w3.org/2000/svg"><g transform="translate(15 16)"><path d="m30.4134435 125.814286c2.9119255 0 5.5003037.325324 8.0886818.975974 6.1473982-16.916883 22.0012145-28.9538964 41.0905035-28.9538964 6.4709455 0 12.6183436 1.3012987 18.1186472 3.9038964 4.206115-23.7487016 24.589593-41.6415587 49.179185-41.6415587 23.618951 0 43.355335 16.5915584 48.532091 38.3883117 11.647702.6506493 22.648309 5.205195 31.384085 12.037013v-88.4883117c0-12.037013-10.029965-21.79675326-22.001214-21.79675326h-182.4806613c-12.2947963 0-22.00121443 9.75974026-22.00121443 21.79675326v119.3941557c6.79449271-9.434415 17.47155263-15.615584 30.08989623-15.615584z"/><path d="m226.159543 205.518831v-13.338312h-225.51244846v13.338312.325325c1.94128363 10.085065 11.00060726 17.892857 21.67766716 17.892857h181.8335663c11.324155 0 20.383479-7.807792 22.001215-18.218182z"/></g></svg>