<svg xmlns="http://www.w3.org/2000/svg" xmlns:xlink="http://www.w3.org/1999/xlink" width="32px" height="32px" viewBox="0 0 32 32" version="1.1"><g id="surface1"><path style=" stroke:none;fill-rule:nonzero;fill:rgb(0%,0%,0%);fill-opacity:1;" d="M 5.675781 17.726562 C 6.039062 17.726562 6.363281 17.765625 6.6875 17.847656 C 7.457031 15.734375 9.4375 14.230469 11.824219 14.230469 C 12.632812 14.230469 13.402344 14.390625 14.089844 14.71875 C 14.613281 11.75 17.164062 9.511719 20.234375 9.511719 C 23.1875 9.511719 25.65625 11.585938 26.304688 14.3125 C 27.757812 14.390625 29.132812 14.960938 30.226562 15.816406 L 30.226562 4.753906 C 30.226562 3.25 28.972656 2.03125 27.476562 2.03125 L 4.664062 2.03125 C 3.128906 2.03125 1.914062 3.25 1.914062 4.753906 L 1.914062 19.679688 C 2.765625 18.5 4.097656 17.726562 5.675781 17.726562 Z M 5.675781 17.726562 "/><path style=" stroke:none;fill-rule:nonzero;fill:rgb(0%,0%,0%);fill-opacity:1;" d="M 30.144531 27.691406 L 30.144531 26.023438 L 1.957031 26.023438 L 1.957031 27.730469 C 2.199219 28.992188 3.332031 29.96875 4.664062 29.96875 L 27.394531 29.96875 C 28.808594 29.96875 29.941406 28.992188 30.144531 27.691406 Z M 30.144531 27.691406 "/></g></svg>